<?xml version="1.0" standalone="yes"?>
<svg width="32" height="32">
<path style="fill:#ffffff; stroke:none;" d="M0 0L0 32L24 32L24 31L14 31L14 30C23.0006 29.7824 27.2318 23.9345 22 16L25 16L25 13L26 13C25.4329 19.7963 23.3173 30.5948 32 32L32 0L0 0z"/>
<path style="fill:#000000; stroke:none;" d="M6 4L6 28L14 30L9 22L8 22L8 27L7 27L7 5L18 5L18 12L26 12C21.8566 3.14629 14.5025 4 6 4z"/>
<path style="fill:#ffffff; stroke:none;" d="M19 6L20 7L19 6M20 8L21 9L20 8M23 9L24 10L23 9z"/>
<path style="fill:#000000; stroke:none;" d="M11 13L8 16L8 21L9 21C13.4062 15.5336 16.6916 16.0855 23 15L11 13M25 13L25 16L22 16C25.8976 23.7987 23.0887 29.5024 14 30L14 31L28 32L25 13z"/>
<path style="fill:#ffffff; stroke:none;" d="M12 14L13 15L12 14M9 17L10 18L9 17M25 30L26 31L25 30z"/>
</svg>
